<?xml version="1.0" encoding="UTF-8"?>
<!DOCTYPE svg PUBLIC "-//W3C//DTD SVG 1.1//EN" "http://www.w3.org/Graphics/SVG/1.1/DTD/svg11.dtd">
<svg xmlns="http://www.w3.org/2000/svg" version="1.1" width="100px" height="40px" style="shape-rendering:geometricPrecision; text-rendering:geometricPrecision; image-rendering:optimizeQuality; fill-rule:evenodd; clip-rule:evenodd" xmlns:xlink="http://www.w3.org/1999/xlink">
<g><path style="opacity:0.012" fill="#f29135" d="M 4.5,10.5 C 6.28841,9.37753 8.28841,9.21086 10.5,10C 8.5273,10.4955 6.5273,10.6621 4.5,10.5 Z"/></g>
<g><path style="opacity:0.01" fill="#f29135" d="M 62.5,10.5 C 64.9664,9.36594 67.633,9.19927 70.5,10C 67.854,10.4974 65.1873,10.6641 62.5,10.5 Z"/></g>
<g><path style="opacity:0.679" fill="#f29135" d="M 11.5,13.5 C 10.7326,14.172 10.0659,15.0053 9.5,16C 11.8096,17.4585 12.1429,19.2919 10.5,21.5C 8.56475,22.1495 6.56475,22.4828 4.5,22.5C 1.82487,20.6244 2.1582,19.1244 5.5,18C 2.96827,17.3878 2.13494,15.8878 3,13.5C 5.94955,10.8555 8.78288,10.8555 11.5,13.5 Z"/></g>
<g><path style="opacity:0.007" fill="#f29135" d="M 15.5,12.5 C 14.448,12.6495 13.448,12.4828 12.5,12C 13.7494,11.2599 14.7494,11.4265 15.5,12.5 Z"/></g>
<g><path style="opacity:0.008" fill="#f19135" d="M 18.5,12.5 C 18.8966,11.475 19.5632,11.3083 20.5,12C 19.9056,12.4643 19.2389,12.631 18.5,12.5 Z"/></g>
<g><path style="opacity:0.009" fill="#f39136" d="M 35.5,12.5 C 36.2506,11.4265 37.2506,11.2599 38.5,12C 37.552,12.4828 36.552,12.6495 35.5,12.5 Z"/></g>
<g><path style="opacity:0.008" fill="#f29135" d="M 44.5,12.5 C 45.2506,11.4265 46.2506,11.2599 47.5,12C 46.552,12.4828 45.552,12.6495 44.5,12.5 Z"/></g>
<g><path style="opacity:0.024" fill="#f29135" d="M 53.5,12.5 C 53.8966,11.475 54.5632,11.3083 55.5,12C 54.9056,12.4643 54.2389,12.631 53.5,12.5 Z"/></g>
<g><path style="opacity:0.691" fill="#f29135" d="M 53.5,22.5 C 53.5,21.8333 53.1667,21.5 52.5,21.5C 51.0165,18.5891 51.3498,15.9225 53.5,13.5C 54.5,13.5 55.5,13.5 56.5,13.5C 56.5,12.5 56.5,11.5 56.5,10.5C 57.8221,10.33 58.9887,10.6634 60,11.5C 60.4986,15.1516 60.6653,18.8183 60.5,22.5C 58.1667,21.1667 55.8333,21.1667 53.5,22.5 Z M 55.5,16.5 C 56.5735,17.2506 56.7401,18.2506 56,19.5C 54.2716,18.6477 54.105,17.6477 55.5,16.5 Z"/></g>
<g><path style="opacity:0.695" fill="#f29135" d="M 70.5,21.5 C 69.8423,20.6016 69.1757,19.6016 68.5,18.5C 67.5745,19.6405 66.7412,19.6405 66,18.5C 65.51,19.7932 65.3433,21.1266 65.5,22.5C 64.1779,22.67 63.0113,22.3366 62,21.5C 61.5017,18.1832 61.335,14.8499 61.5,11.5C 64.5,11.5 67.5,11.5 70.5,11.5C 70.5,12.5 70.5,13.5 70.5,14.5C 63.8656,14.6768 63.8656,15.1768 70.5,16C 70.1459,17.6255 70.1459,19.4588 70.5,21.5 Z"/></g>
<g><path style="opacity:0.01" fill="#f29135" d="M 72.5,13.5 C 71.475,13.1034 71.3083,12.4368 72,11.5C 72.4643,12.0944 72.631,12.7611 72.5,13.5 Z"/></g>
<g><path style="opacity:0.009" fill="#f29135" d="M 77.5,12.5 C 76.1266,12.6567 74.7932,12.49 73.5,12C 75.0657,11.235 76.3991,11.4017 77.5,12.5 Z"/></g>
<g><path style="opacity:0.007" fill="#f29135" d="M 81.5,12.5 C 83.2884,11.3775 85.2884,11.2109 87.5,12C 85.5273,12.4955 83.5273,12.6621 81.5,12.5 Z"/></g>
<g><path style="opacity:0.009" fill="#f29136" d="M 89.5,12.5 C 90.2506,11.4265 91.2506,11.2599 92.5,12C 91.552,12.4828 90.552,12.6495 89.5,12.5 Z"/></g>
<g><path style="opacity:0.004" fill="#f29135" d="M 15.5,12.5 C 16.8333,13.1667 16.8333,13.1667 15.5,12.5 Z"/></g>
<g><path style="opacity:0.004" fill="#f29135" d="M 39.5,12.5 C 40.8333,13.1667 40.8333,13.1667 39.5,12.5 Z"/></g>
<g><path style="opacity:0.008" fill="#f19137" d="M 53.5,12.5 C 53.5,12.8333 53.5,13.1667 53.5,13.5C 52.8299,13.0187 52.8299,12.6853 53.5,12.5 Z"/></g>
<g><path style="opacity:0.008" fill="#f29235" d="M 77.5,12.5 C 78.8333,13.1667 78.8333,13.1667 77.5,12.5 Z"/></g>
<g><path style="opacity:0.008" fill="#f19235" d="M 89.5,12.5 C 89.5,12.8333 89.5,13.1667 89.5,13.5C 88.8299,13.0187 88.8299,12.6853 89.5,12.5 Z"/></g>
<g><path style="opacity:0.657" fill="#f29135" d="M 11.5,13.5 C 12.8333,13.5 14.1667,13.5 15.5,13.5C 16.5961,17.2887 17.2627,17.2887 17.5,13.5C 18.9778,13.238 20.3112,13.5713 21.5,14.5C 20.7542,15.7362 20.4208,17.0695 20.5,18.5C 19.6618,18.8417 19.3284,19.5084 19.5,20.5C 18.6618,20.8417 18.3284,21.5084 18.5,22.5C 17.5,22.8333 16.8333,23.5 16.5,24.5C 16.1667,24.5 15.8333,24.5 15.5,24.5C 14.8333,24.5 14.1667,24.5 13.5,24.5C 13.1667,24.5 12.8333,24.5 12.5,24.5C 12.4802,22.857 13.1468,21.5237 14.5,20.5C 13.2122,18.2612 12.2122,15.9279 11.5,13.5 Z"/></g>
<g><path style="opacity:0.657" fill="#f29036" d="M 30.5,14.5 C 31.3897,16.7819 31.5564,19.1152 31,21.5C 29.9887,22.3366 28.8221,22.67 27.5,22.5C 27.4812,15.4694 26.9812,15.136 26,21.5C 24.9887,22.3366 23.8221,22.67 22.5,22.5C 22.5,19.5 22.5,16.5 22.5,13.5C 25.2788,13.2786 27.9455,13.612 30.5,14.5 Z"/></g>
<g><path style="opacity:0.004" fill="#f19235" d="M 30.5,13.5 C 31.8333,14.1667 31.8333,14.1667 30.5,13.5 Z"/></g>
<g><path style="opacity:0.688" fill="#f29135" d="M 38.5,22.5 C 37.5,22.5 36.5,22.5 35.5,22.5C 31.9988,20.1379 31.6655,17.3045 34.5,14C 37.955,12.8889 39.955,14.0556 40.5,17.5C 39.1779,17.67 38.0113,17.3366 37,16.5C 35,17.5 35,18.5 37,19.5C 38.0113,18.6634 39.1779,18.33 40.5,18.5C 40.4729,20.1993 39.8062,21.5326 38.5,22.5 Z"/></g>
<g><path style="opacity:0.69" fill="#f29135" d="M 47.5,22.5 C 46.5,22.5 45.5,22.5 44.5,22.5C 41.7498,20.9922 40.9164,18.6589 42,15.5C 45.8814,12.5135 48.7147,13.3468 50.5,18C 50.0433,19.9402 49.0433,21.4402 47.5,22.5 Z"/></g>
<g><path style="opacity:0.66" fill="#f29135" d="M 72.5,13.5 C 74.1667,13.5 75.8333,13.5 77.5,13.5C 77.8333,14.5 78.5,15.1667 79.5,15.5C 79.5,17.8333 79.5,20.1667 79.5,22.5C 76.8712,22.0965 74.2046,21.7632 71.5,21.5C 72.1831,18.6652 72.5164,15.9986 72.5,13.5 Z"/></g>
<g><path style="opacity:0.663" fill="#f19037" d="M 89.5,13.5 C 91.3904,13.2965 92.8904,13.9632 94,15.5C 94.4966,17.8098 94.6633,20.1432 94.5,22.5C 93.1779,22.33 92.0113,22.6634 91,23.5C 90.6667,21.1667 90.3333,18.8333 90,16.5C 89.5045,18.4727 89.3379,20.4727 89.5,22.5C 88.5,22.5 87.5,22.5 86.5,22.5C 85.2245,16.0143 84.5578,16.0143 84.5,22.5C 83.1779,22.67 82.0113,22.3366 81,21.5C 80.5045,19.5273 80.3379,17.5273 80.5,15.5C 81.5523,14.4695 82.8857,13.8029 84.5,13.5C 86.408,14.1361 88.0746,14.1361 89.5,13.5 Z"/></g>
<g><path style="opacity:0.004" fill="#f4963f" d="M 80.5,15.5 C 79.8333,14.1667 79.8333,14.1667 80.5,15.5 Z"/></g>
<g><path style="opacity:0.014" fill="#f29136" d="M 95.5,15.5 C 96.6225,17.2884 96.7891,19.2884 96,21.5C 95.5045,19.5273 95.3379,17.5273 95.5,15.5 Z"/></g>
<g><path style="opacity:0.006" fill="#f29135" d="M 0.5,19.5 C 1.52502,19.8966 1.69169,20.5632 1,21.5C 0.535656,20.9056 0.368989,20.2389 0.5,19.5 Z"/></g>
<g><path style="opacity:0.01" fill="#ea8040" d="M 20.5,18.5 C 21.7122,20.2637 21.3788,21.9303 19.5,23.5C 18.8933,23.3764 18.56,23.0431 18.5,22.5C 19.3382,22.1583 19.6716,21.4916 19.5,20.5C 20.3382,20.1583 20.6716,19.4916 20.5,18.5 Z"/></g>
<g><path style="opacity:0.008" fill="#f09138" d="M 66.5,20.5 C 67.8333,21.1667 67.8333,21.1667 66.5,20.5 Z"/></g>
<g><path style="opacity:0.004" fill="#f19135" d="M 70.5,21.5 C 70.8333,21.5 71.1667,21.5 71.5,21.5C 71.5,21.8333 71.5,22.1667 71.5,22.5C 71.1667,22.1667 70.8333,21.8333 70.5,21.5 Z"/></g>
<g><path style="opacity:0.01" fill="#e36b43" d="M 4.5,22.5 C 4.10343,23.525 3.43677,23.6917 2.5,23C 3.09442,22.5357 3.76109,22.369 4.5,22.5 Z"/></g>
<g><path style="opacity:0.004" fill="#df6548" d="M 10.5,21.5 C 11.7733,22.0768 11.7733,22.7435 10.5,23.5C 9.53705,23.0302 9.53705,22.3635 10.5,21.5 Z"/></g>
<g><path style="opacity:0.004" fill="#c3215d" d="M 22.5,22.5 C 21.8333,23.1667 21.8333,23.1667 22.5,22.5 Z"/></g>
<g><path style="opacity:0.004" fill="#ca3057" d="M 27.5,22.5 C 26.8333,23.1667 26.8333,23.1667 27.5,22.5 Z"/></g>
<g><path style="opacity:0.004" fill="#c11d5e" d="M 31.5,22.5 C 32.8333,23.1667 32.8333,23.1667 31.5,22.5 Z"/></g>
<g><path style="opacity:0.008" fill="#dd5e49" d="M 35.5,22.5 C 35.1034,23.525 34.4368,23.6917 33.5,23C 34.0944,22.5357 34.7611,22.369 35.5,22.5 Z"/></g>
<g><path style="opacity:0.004" fill="#db5a49" d="M 38.5,22.5 C 39.2389,22.369 39.9056,22.5357 40.5,23C 39.5632,23.6917 38.8966,23.525 38.5,22.5 Z"/></g>
<g><path style="opacity:0.008" fill="#e16645" d="M 44.5,22.5 C 44.1034,23.525 43.4368,23.6917 42.5,23C 43.0944,22.5357 43.7611,22.369 44.5,22.5 Z"/></g>
<g><path style="opacity:0.008" fill="#df6148" d="M 47.5,22.5 C 48.2389,22.369 48.9056,22.5357 49.5,23C 48.5632,23.6917 47.8966,23.525 47.5,22.5 Z"/></g>
<g><path style="opacity:0.004" fill="#d75750" d="M 52.5,21.5 C 53.1667,21.5 53.5,21.8333 53.5,22.5C 53.44,23.0431 53.1067,23.3764 52.5,23.5C 51.2267,22.7435 51.2267,22.0768 52.5,21.5 Z"/></g>
<g><path style="opacity:0.004" fill="#1279af" d="M 70.5,22.5 C 69.8333,23.1667 69.8333,23.1667 70.5,22.5 Z"/></g>
<g><path style="opacity:0.004" fill="#f39133" d="M 71.5,22.5 C 72.8333,23.1667 72.8333,23.1667 71.5,22.5 Z"/></g>
<g><path style="opacity:0.004" fill="#0076bc" d="M 86.5,22.5 C 85.8333,23.1667 85.8333,23.1667 86.5,22.5 Z"/></g>
<g><path style="opacity:0.004" fill="#fe8030" d="M 55.5,23.5 C 56.8333,24.1667 56.8333,24.1667 55.5,23.5 Z"/></g>
<g><path style="opacity:0.698" fill="#be1263" d="M 12.5,24.5 C 12.8333,25.8333 13.1667,25.8333 13.5,24.5C 14.1667,24.5 14.8333,24.5 15.5,24.5C 15.8333,25.8333 16.1667,25.8333 16.5,24.5C 29.5,24.5 42.5,24.5 55.5,24.5C 55.5,26.1667 55.5,27.8333 55.5,29.5C 37.8333,29.5 20.1667,29.5 2.5,29.5C 2.5,27.8333 2.5,26.1667 2.5,24.5C 5.83333,24.5 9.16667,24.5 12.5,24.5 Z"/></g>
<g><path style="opacity:0.456" fill="#0d78b1" d="M 59.5,29.5 C 57.744,28.4479 57.0773,26.7812 57.5,24.5C 61.7399,24.8927 62.4065,26.5593 59.5,29.5 Z"/></g>
<g><path style="opacity:0.345" fill="#0c78b1" d="M 62.5,24.5 C 64.9424,24.3537 65.6091,25.187 64.5,27C 65.3081,27.3076 65.9747,27.8076 66.5,28.5C 65.3112,29.4287 63.9778,29.762 62.5,29.5C 62.5,27.8333 62.5,26.1667 62.5,24.5 Z"/></g>
<g><path style="opacity:0.401" fill="#0c77b1" d="M 88.5,29.5 C 87.1667,29.5 85.8333,29.5 84.5,29.5C 84.5,27.8333 84.5,26.1667 84.5,24.5C 85.8333,24.5 87.1667,24.5 88.5,24.5C 88.5,26.1667 88.5,27.8333 88.5,29.5 Z"/></g>
<g><path style="opacity:0.456" fill="#0c77b1" d="M 94.5,25.5 C 94.5,26.1667 94.5,26.8333 94.5,27.5C 93.1667,27.8333 93.1667,28.1667 94.5,28.5C 92.9498,28.4921 91.2832,28.8254 89.5,29.5C 89.5,27.8333 89.5,26.1667 89.5,24.5C 91.2915,24.366 92.9582,24.6993 94.5,25.5 Z"/></g>
<g><path style="opacity:0.004" fill="#0a78b1" d="M 94.5,24.5 C 95.8333,25.1667 95.8333,25.1667 94.5,24.5 Z"/></g>
<g><path style="opacity:0.004" fill="#be1862" d="M 0.5,25.5 C 1.57346,26.2506 1.74012,27.2506 1,28.5C 0.517215,27.552 0.350549,26.552 0.5,25.5 Z"/></g>
<g><path style="opacity:0.016" fill="#0d78b1" d="M 66.5,25.5 C 67.8333,26.1667 67.8333,26.1667 66.5,25.5 Z"/></g>
<g><path style="opacity:0.515" fill="#0c78b1" d="M 72.5,29.5 C 70.7753,28.722 69.1086,28.3886 67.5,28.5C 69.6026,23.3487 71.2693,23.682 72.5,29.5 Z"/></g>
<g><path style="opacity:0.599" fill="#0c77b1" d="M 77.5,29.5 C 76.1667,29.5 74.8333,29.5 73.5,29.5C 73.3398,27.8008 73.5065,26.1341 74,24.5C 74.7412,25.6405 75.5745,25.6405 76.5,24.5C 77.4519,26.0453 77.7852,27.712 77.5,29.5 Z"/></g>
<g><path style="opacity:0.591" fill="#0c78b1" d="M 78.5,29.5 C 78.2148,27.712 78.5481,26.0453 79.5,24.5C 80.5,25.8333 81.5,25.8333 82.5,24.5C 83.8333,26.1667 83.8333,27.8333 82.5,29.5C 81.2736,28.6371 79.9403,28.6371 78.5,29.5 Z"/></g>
<g><path style="opacity:0.004" fill="#0c79b0" d="M 95.5,26.5 C 96.8333,27.1667 96.8333,27.1667 95.5,26.5 Z"/></g>
<g><path style="opacity:0.004" fill="#0e79b0" d="M 94.5,27.5 C 94.8333,27.5 95.1667,27.5 95.5,27.5C 95.3147,28.1701 94.9813,28.1701 94.5,27.5 Z"/></g>
<g><path style="opacity:0.004" fill="#0c77b1" d="M 59.5,30.5 C 59.5,30.1667 59.5,29.8333 59.5,29.5C 62.1667,29.8333 62.1667,30.1667 59.5,30.5 Z"/></g>
<g><path style="opacity:0.008" fill="#0d79b1" d="M 72.5,29.5 C 72.8333,29.5 73.1667,29.5 73.5,29.5C 73.5,29.8333 73.5,30.1667 73.5,30.5C 73.1667,30.1667 72.8333,29.8333 72.5,29.5 Z"/></g>
<g><path style="opacity:0.004" fill="#0d78b1" d="M 77.5,29.5 C 77.8333,29.5 78.1667,29.5 78.5,29.5C 78.3147,30.1701 77.9813,30.1701 77.5,29.5 Z"/></g>
<g><path style="opacity:0.004" fill="#0f79b2" d="M 88.5,29.5 C 88.8333,29.5 89.1667,29.5 89.5,29.5C 89.3147,30.1701 88.9813,30.1701 88.5,29.5 Z"/></g>
<g><path style="opacity:0.012" fill="#be1262" d="M 2.5,31.5 C 19.9952,30.3381 37.6619,30.1714 55.5,31C 37.8365,31.4999 20.1698,31.6666 2.5,31.5 Z"/></g>
<g><path style="opacity:0.008" fill="#0d78b1" d="M 59.5,30.5 C 59.1034,31.525 58.4368,31.6917 57.5,31C 58.0944,30.5357 58.7611,30.369 59.5,30.5 Z"/></g>
<g><path style="opacity:0.014" fill="#0d78b1" d="M 63.5,31.5 C 64.2506,30.4265 65.2506,30.2599 66.5,31C 65.552,31.4828 64.552,31.6495 63.5,31.5 Z"/></g>
<g><path style="opacity:0.008" fill="#0c78b1" d="M 67.5,31.5 C 67.8966,30.475 68.5632,30.3083 69.5,31C 68.9056,31.4643 68.2389,31.631 67.5,31.5 Z"/></g>
<g><path style="opacity:0.004" fill="#0c78b1" d="M 72.5,30.5 C 72.1034,31.525 71.4368,31.6917 70.5,31C 71.0944,30.5357 71.7611,30.369 72.5,30.5 Z"/></g>
<g><path style="opacity:0.012" fill="#0d78b1" d="M 73.5,30.5 C 74.8333,31.1667 74.8333,31.1667 73.5,30.5 Z"/></g>
<g><path style="opacity:0.012" fill="#0c78b1" d="M 77.5,30.5 C 77.1034,31.525 76.4368,31.6917 75.5,31C 76.0944,30.5357 76.7611,30.369 77.5,30.5 Z"/></g>
<g><path style="opacity:0.012" fill="#0d78b1" d="M 79.5,30.5 C 80.8333,31.1667 80.8333,31.1667 79.5,30.5 Z"/></g>
<g><path style="opacity:0.008" fill="#0c78b1" d="M 81.5,31.5 C 81.8966,30.475 82.5632,30.3083 83.5,31C 82.9056,31.4643 82.2389,31.631 81.5,31.5 Z"/></g>
<g><path style="opacity:0.011" fill="#0d78b1" d="M 88.5,30.5 C 87.3991,31.5983 86.0657,31.765 84.5,31C 85.7932,30.51 87.1266,30.3433 88.5,30.5 Z"/></g>
<g><path style="opacity:0.012" fill="#0d78b1" d="M 90.5,30.5 C 91.8333,31.1667 91.8333,31.1667 90.5,30.5 Z"/></g>
<g><path style="opacity:0.012" fill="#0d78b1" d="M 92.5,30.5 C 93.8333,31.1667 93.8333,31.1667 92.5,30.5 Z"/></g>
</svg>
